HIERARCHY
ROOT pelvis
{
	OFFSET 0.003123 -0.351407 0.012037
	CHANNELS 6 Xposition Yposition Zposition Zrotation Yrotation Xrotation 
	JOINT left_hip
	{
		OFFSET 0.058189 -0.092763 -0.026001
		CHANNELS 3 Zrotation Yrotation Xrotation
		JOINT left_knee
		{
			OFFSET 0.054695 -0.378753 -0.009396
			CHANNELS 3 Zrotation Yrotation Xrotation
			JOINT left_ankle
			{
				OFFSET -0.043453 -0.403059 -0.031876
				CHANNELS 3 Zrotation Yrotation Xrotation
				JOINT left_foot
				{
					OFFSET 0.047257 -0.057997 0.118216
					CHANNELS 3 Zrotation Yrotation Xrotation
					End Site
					{
						OFFSET 0.000000 0.000000 0.000000
					}
				}
			}
		}
	}
	JOINT right_hip
	{
		OFFSET -0.063267 -0.103908 -0.021250
		CHANNELS 3 Zrotation Yrotation Xrotation
		JOINT right_knee
		{
			OFFSET -0.044210 -0.362380 -0.016824
			CHANNELS 3 Zrotation Yrotation Xrotation
			JOINT right_ankle
			{
				OFFSET 0.015417 -0.410728 -0.020192
				CHANNELS 3 Zrotation Yrotation Xrotation
				JOINT right_foot
				{
					OFFSET -0.038812 -0.058328 0.119049
					CHANNELS 3 Zrotation Yrotation Xrotation
					End Site
					{
						OFFSET 0.000000 0.000000 0.000000
					}
				}
			}
		}
	}
	JOINT spine_1
	{
		OFFSET -0.002763 0.109891 -0.027618
		CHANNELS 3 Zrotation Yrotation Xrotation
		JOINT spine_2
		{
			OFFSET 0.009448 0.131853 -0.005940
			CHANNELS 3 Zrotation Yrotation Xrotation
			JOINT spine_3
			{
				OFFSET -0.011330 0.052235 0.028447
				CHANNELS 3 Zrotation Yrotation Xrotation
				JOINT neck
				{
					OFFSET -0.012164 0.165167 -0.031615
					CHANNELS 3 Zrotation Yrotation Xrotation
					JOINT head
					{
						OFFSET 0.024783 0.160452 0.020737
						CHANNELS 3 Zrotation Yrotation Xrotation
						End Site
						{
							OFFSET 0.000000 0.000000 0.000000
						}
					}
				}
				JOINT left_collar
				{
					OFFSET 0.046364 0.084944 -0.007220
					CHANNELS 3 Zrotation Yrotation Xrotation
					JOINT left_shoulder
					{
						OFFSET 0.119239 0.057728 -0.015461
						CHANNELS 3 Zrotation Yrotation Xrotation
						JOINT left_elbow
						{
							OFFSET 0.254123 -0.072151 -0.042459
							CHANNELS 3 Zrotation Yrotation Xrotation
							JOINT left_wrist
							{
								OFFSET 0.251987 0.023221 -0.002472
								CHANNELS 3 Zrotation Yrotation Xrotation
								JOINT left_index_1
								{
									OFFSET 0.101902 -0.008688 0.019351
									CHANNELS 3 Zrotation Yrotation Xrotation
									JOINT left_index_2
									{
										OFFSET 0.030149 -0.011154 0.001151
										CHANNELS 3 Zrotation Yrotation Xrotation
										JOINT left_index_3
										{
											OFFSET 0.006504 -0.021577 -0.002433
											CHANNELS 3 Zrotation Yrotation Xrotation
											End Site
											{
												OFFSET 0.000000 0.000000 0.000000
											}
										}
									}
								}
								JOINT left_middle_1
								{
									OFFSET 0.109398 -0.006328 -0.003981
									CHANNELS 3 Zrotation Yrotation Xrotation
									JOINT left_middle_2
									{
										OFFSET 0.026472 -0.015218 -0.004641
										CHANNELS 3 Zrotation Yrotation Xrotation
										JOINT left_middle_3
										{
											OFFSET 0.005022 -0.023347 -0.001911
											CHANNELS 3 Zrotation Yrotation Xrotation
											End Site
											{
												OFFSET 0.000000 0.000000 0.000000
											}
										}
									}
								}
								JOINT left_pinky_1
								{
									OFFSET 0.084047 -0.014539 -0.043750
									CHANNELS 3 Zrotation Yrotation Xrotation
									JOINT left_pinky_2
									{
										OFFSET 0.012124 -0.014448 -0.005375
										CHANNELS 3 Zrotation Yrotation Xrotation
										JOINT left_pinky_3
										{
											OFFSET 0.003798 -0.018853 0.000167
											CHANNELS 3 Zrotation Yrotation Xrotation
											End Site
											{
												OFFSET 0.000000 0.000000 0.000000
											}
										}
									}
								}
								JOINT left_ring_1
								{
									OFFSET 0.097444 -0.009268 -0.027345
									CHANNELS 3 Zrotation Yrotation Xrotation
									JOINT left_ring_2
									{
										OFFSET 0.023561 -0.016057 -0.001895
										CHANNELS 3 Zrotation Yrotation Xrotation
										JOINT left_ring_3
										{
											OFFSET 0.004257 -0.023548 0.000814
											CHANNELS 3 Zrotation Yrotation Xrotation
											End Site
											{
												OFFSET 0.000000 0.000000 0.000000
											}
										}
									}
								}
								JOINT left_thumb_1
								{
									OFFSET 0.040636 -0.017977 0.025611
									CHANNELS 3 Zrotation Yrotation Xrotation
									JOINT left_thumb_2
									{
										OFFSET 0.021637 -0.017639 0.011623
										CHANNELS 3 Zrotation Yrotation Xrotation
										JOINT left_thumb_3
										{
											OFFSET 0.024002 -0.008356 0.006548
											CHANNELS 3 Zrotation Yrotation Xrotation
											End Site
											{
												OFFSET 0.000000 0.000000 0.000000
											}
										}
									}
								}
							}
						}
					}
				}
				JOINT right_collar
				{
					OFFSET -0.047695 0.084339 -0.013400
					CHANNELS 3 Zrotation Yrotation Xrotation
					JOINT right_shoulder
					{
						OFFSET -0.102578 0.053524 -0.012669
						CHANNELS 3 Zrotation Yrotation Xrotation
						JOINT right_elbow
						{
							OFFSET -0.271150 -0.036492 -0.026467
							CHANNELS 3 Zrotation Yrotation Xrotation
							JOINT right_wrist
							{
								OFFSET -0.249267 -0.004533 -0.015325
								CHANNELS 3 Zrotation Yrotation Xrotation
								JOINT right_index_1
								{
									OFFSET -0.099881 -0.011783 0.019600
									CHANNELS 3 Zrotation Yrotation Xrotation
									JOINT right_index_2
									{
										OFFSET -0.030148 -0.011154 0.001151
										CHANNELS 3 Zrotation Yrotation Xrotation
										JOINT right_index_3
										{
											OFFSET -0.006505 -0.021577 -0.002432
											CHANNELS 3 Zrotation Yrotation Xrotation
											End Site
											{
												OFFSET 0.000000 0.000000 0.000000
											}
										}
									}
								}
								JOINT right_middle_1
								{
									OFFSET -0.107376 -0.009422 -0.003734
									CHANNELS 3 Zrotation Yrotation Xrotation
									JOINT right_middle_2
									{
										OFFSET -0.026472 -0.015218 -0.004641
										CHANNELS 3 Zrotation Yrotation Xrotation
										JOINT right_middle_3
										{
											OFFSET -0.005022 -0.023347 -0.001911
											CHANNELS 3 Zrotation Yrotation Xrotation
											End Site
											{
												OFFSET 0.000000 0.000000 0.000000
											}
										}
									}
								}
								JOINT right_pinky_1
								{
									OFFSET -0.082027 -0.017634 -0.043503
									CHANNELS 3 Zrotation Yrotation Xrotation
									JOINT right_pinky_2
									{
										OFFSET -0.012123 -0.014448 -0.005374
										CHANNELS 3 Zrotation Yrotation Xrotation
										JOINT right_pinky_3
										{
											OFFSET -0.003798 -0.018852 0.000167
											CHANNELS 3 Zrotation Yrotation Xrotation
											End Site
											{
												OFFSET 0.000000 0.000000 0.000000
											}
										}
									}
								}
								JOINT right_ring_1
								{
									OFFSET -0.095423 -0.012362 -0.027099
									CHANNELS 3 Zrotation Yrotation Xrotation
									JOINT right_ring_2
									{
										OFFSET -0.023561 -0.016057 -0.001895
										CHANNELS 3 Zrotation Yrotation Xrotation
										JOINT right_ring_3
										{
											OFFSET -0.004257 -0.023548 0.000816
											CHANNELS 3 Zrotation Yrotation Xrotation
											End Site
											{
												OFFSET 0.000000 0.000000 0.000000
											}
										}
									}
								}
								JOINT right_thumb_1
								{
									OFFSET -0.038613 -0.021074 0.025861
									CHANNELS 3 Zrotation Yrotation Xrotation
									JOINT right_thumb_2
									{
										OFFSET -0.021636 -0.017639 0.011623
										CHANNELS 3 Zrotation Yrotation Xrotation
										JOINT right_thumb_3
										{
											OFFSET -0.024004 -0.008353 0.006547
											CHANNELS 3 Zrotation Yrotation Xrotation
											End Site
											{
												OFFSET 0.000000 0.000000 0.000000
											}
										}
									}
								}
							}
						}
					}
				}
			}
		}
	}
}
MOTION
Frames: 5
Frame Time: 0.033333
0.029000 0.940134 0.054703 -1.387704 -6.649323 -8.135993 -1.020326 1.275614 7.939719 7.218782 -0.328636 -2.008781 5.563684 12.887957 3.754411 0.000000 0.000000 0.000000 1.242473 -0.849430 6.335374 3.825135 -0.134278 -2.028103 4.147946 7.603407 1.016048 0.000000 0.000000 0.000000 -0.573670 -0.510531 6.211357 -6.841636 -0.630585 -14.635109 9.056846 -2.142000 25.760989 3.122047 0.400687 -6.057914 0.000000 0.000000 0.000000 -5.577257 -2.930799 1.459389 -58.881749 -8.088483 -7.496263 -19.526157 -26.290611 7.405122 -0.216123 0.090901 17.243440 -25.849550 -0.158559 -0.384938 -30.562043 6.818445 0.679208 0.000000 0.000000 0.000000 -28.231478 -3.982892 -6.850359 -37.186158 -4.121179 -17.911117 0.000000 0.000000 0.000000 -15.623719 -35.087775 -28.116793 -37.280491 -8.823695 -29.690502 0.000000 0.000000 0.000000 -30.082496 -19.169751 -9.395371 -40.417050 -9.633050 -22.164976 0.000000 0.000000 0.000000 7.362826 26.395788 26.291104 4.362165 -13.508619 -6.036419 0.000000 0.000000 0.000000 3.035146 1.901574 0.557704 63.297643 5.138433 -7.377841 20.934340 23.373665 2.798446 5.960397 -1.258143 21.186859 20.740351 -7.188228 1.191849 4.224730 -9.073805 16.041883 0.000000 0.000000 0.000000 22.891302 -0.397021 -4.877639 27.596937 -7.176630 2.571147 0.000000 0.000000 0.000000 -1.994322 20.888003 -14.938376 57.712318 9.223706 -18.565404 0.000000 0.000000 0.000000 21.623342 0.332318 -3.209876 45.195435 0.369351 -8.334713 0.000000 0.000000 0.000000 -11.546327 -29.145713 29.727169 0.891883 17.828240 -5.374234 0.000000 0.000000 0.000000 
0.034889 0.944002 0.057343 -0.331754 -6.444091 -9.861896 -1.982738 1.296528 7.669769 6.107957 -0.880936 1.880416 5.652468 13.061657 3.796077 0.000000 0.000000 0.000000 1.238580 -0.849085 6.412316 0.966071 -0.001749 1.250742 3.614203 7.474919 -0.049804 0.000000 0.000000 0.000000 -4.703097 -0.609180 8.878570 -6.309017 -0.954442 -15.088026 10.359706 -2.457612 25.788602 6.170635 0.218093 -7.102611 0.000000 0.000000 0.000000 -3.411599 -1.977415 0.949215 -59.274042 -7.665937 -7.448862 -25.071422 -27.194712 9.169407 0.043467 -1.272625 22.486615 -36.800870 4.972041 -1.091964 -30.151003 7.883262 1.244135 0.000000 0.000000 0.000000 -46.312624 -1.895752 -10.459722 -24.031180 -2.896326 -16.361005 0.000000 0.000000 0.000000 -17.366671 -57.037087 -36.884937 -15.841560 3.968237 -12.383582 0.000000 0.000000 0.000000 -45.655019 -25.161996 -9.383871 -27.041755 -4.125789 -20.170730 0.000000 0.000000 0.000000 -4.283111 30.108111 29.408900 21.766589 -10.527682 -13.506859 0.000000 0.000000 0.000000 3.952959 3.398080 1.248924 64.497022 5.735045 -7.253921 18.412367 21.333559 2.090175 6.814513 0.921551 16.510222 25.970061 -7.390577 0.990599 15.349575 -13.136361 15.842600 0.000000 0.000000 0.000000 30.451917 -0.435136 -6.235642 32.443927 -1.623731 -7.760202 0.000000 0.000000 0.000000 -1.033893 24.498911 -22.281809 51.156086 12.165506 -21.724521 0.000000 0.000000 0.000000 27.122977 5.646842 -5.389393 48.269024 6.051474 -14.312647 0.000000 0.000000 0.000000 -17.512711 -30.834632 33.050473 4.403199 21.407790 -4.481726 0.000000 0.000000 0.000000 
0.042663 0.940618 0.067902 0.219204 -9.155770 -9.687492 -1.509810 1.343479 8.027629 2.824301 -0.598803 2.376429 7.164191 15.527214 2.875026 0.000000 0.000000 0.000000 0.825303 -0.767113 6.224539 -0.482440 0.089819 1.814863 3.908806 9.926407 -1.870882 0.000000 0.000000 0.000000 -4.264529 -0.709586 11.843469 -6.860732 -1.654775 -18.034647 8.057637 -1.590326 27.686906 6.979562 0.229538 -7.833535 0.000000 0.000000 0.000000 -2.354290 -3.003966 1.524010 -58.208735 -8.723125 -6.895519 -23.744050 -29.062571 9.533671 -3.612500 0.074488 21.918623 -53.407550 15.087564 -2.762587 -35.026104 12.813286 4.624132 0.000000 0.000000 0.000000 -63.899947 14.313621 -14.389996 -23.392440 -2.301542 -12.242867 0.000000 0.000000 0.000000 -88.449745 -4.261403 -38.007256 18.276351 5.971408 0.611980 0.000000 0.000000 0.000000 -75.183666 -8.788597 -10.791031 -13.527031 -3.784499 -13.138775 0.000000 0.000000 0.000000 -22.011347 35.408501 31.443531 62.597499 6.666045 -22.103458 0.000000 0.000000 0.000000 3.215827 3.092285 1.141868 70.823758 8.591380 -6.977749 13.109077 18.681947 1.144636 5.134283 3.169978 11.387764 30.592315 -15.871481 2.125165 25.918188 -16.444590 16.299137 0.000000 0.000000 0.000000 34.382378 0.016994 -6.445999 40.714390 -2.978637 -4.923141 0.000000 0.000000 0.000000 -2.536382 33.265964 -37.815106 58.374516 11.717725 -13.264994 0.000000 0.000000 0.000000 33.974228 9.478791 -6.410319 48.623884 6.647067 -11.347833 0.000000 0.000000 0.000000 -19.248899 -35.790618 39.675290 -2.293758 25.998399 -9.392001 0.000000 0.000000 0.000000 
0.037127 0.938522 0.066582 -0.191590 -11.660462 -9.248231 0.346916 1.537959 9.791563 0.866760 0.038116 -1.140941 7.687265 16.788029 3.521482 0.000000 0.000000 0.000000 0.213875 -0.834250 7.717051 2.035594 -0.070252 -1.957487 5.660549 12.006949 -0.257822 0.000000 0.000000 0.000000 -1.670793 -0.713829 9.019854 -7.041689 -1.496798 -17.207975 6.716827 -2.210537 28.275674 6.599077 -0.457987 -4.511430 0.000000 0.000000 0.000000 -4.128786 1.243825 -0.642372 -57.661881 -8.938422 -6.467128 -23.910907 -26.449689 8.733771 -4.706561 1.882708 23.784161 -43.034720 12.362060 -1.057375 -40.190793 19.565835 8.669329 0.000000 0.000000 0.000000 -57.208973 15.309000 -12.549195 -32.615916 2.236674 -5.133901 0.000000 0.000000 0.000000 -80.682042 7.403164 -43.759167 11.144831 28.514406 17.397397 0.000000 0.000000 0.000000 -67.438838 -1.886970 -11.792537 -26.445956 -3.343324 -5.934658 0.000000 0.000000 0.000000 -9.035440 32.241117 32.161160 48.011108 -0.506755 -21.346150 0.000000 0.000000 0.000000 1.273759 6.251903 3.051003 72.298020 9.815942 -7.419966 13.621454 18.572198 1.196249 1.644938 4.791200 10.337563 23.421668 -7.850648 1.666727 20.882288 -8.816405 8.515998 0.000000 0.000000 0.000000 28.332177 4.662807 -6.563585 30.270913 -1.087170 -6.312893 0.000000 0.000000 0.000000 1.208091 28.238735 -31.094957 45.115404 6.734677 -10.957809 0.000000 0.000000 0.000000 28.429166 14.047857 -7.684535 34.533130 5.066212 -11.962323 0.000000 0.000000 0.000000 -13.351280 -30.062306 29.512229 3.383776 18.904485 -4.624002 0.000000 0.000000 0.000000 
0.039365 0.934493 0.069221 -0.259879 -12.131741 -9.647001 0.998543 1.436182 9.426919 -0.592893 -0.005214 0.749403 8.407414 17.668227 1.842206 0.000000 0.000000 0.000000 -0.463685 -0.633915 6.506654 3.094562 -0.057895 1.208895 4.672878 12.593218 -2.667457 0.000000 0.000000 0.000000 -1.343533 -0.762292 9.690003 -6.868675 -1.662833 -17.518190 7.526154 -2.279309 27.946416 5.263917 -0.229649 -4.656734 0.000000 0.000000 0.000000 -3.095143 0.183729 -0.069688 -60.289980 -6.746949 -6.879284 -24.022187 -29.134497 9.739779 -1.672367 1.845628 22.119439 -32.178035 6.232221 -0.214579 -30.660270 17.347481 12.302320 0.000000 0.000000 0.000000 -36.808671 6.738542 -6.713113 -41.156216 7.032694 -0.628827 0.000000 0.000000 0.000000 -33.571205 -18.684259 -17.963189 -48.543715 -10.495621 -18.032544 0.000000 0.000000 0.000000 -41.537453 -1.860939 -6.643268 -54.124835 -3.850594 -8.393333 0.000000 0.000000 0.000000 -6.763351 32.702963 31.594806 27.110682 -10.830688 -16.390164 0.000000 0.000000 0.000000 -0.333655 3.107476 1.661567 72.234093 5.827377 -9.813360 17.541529 22.181217 2.169744 4.270545 0.791636 15.988496 24.678997 -11.343716 1.869117 16.180177 -9.606622 10.521643 0.000000 0.000000 0.000000 26.602611 -0.052985 -5.361965 29.072900 -0.414697 -9.466499 0.000000 0.000000 0.000000 -1.395478 26.960448 -26.773296 45.423559 5.990227 -11.788562 0.000000 0.000000 0.000000 27.142918 7.799084 -5.974758 35.172200 4.738221 -14.904253 0.000000 0.000000 0.000000 -13.498622 -30.361124 31.080115 2.560332 19.814107 -5.146839 0.000000 0.000000 0.000000 
